<?xml version="1.0" encoding="utf-8"?><!DOCTYPE svg PUBLIC "-//W3C//DTD SVG 1.1//EN" "http://www.w3.org/Graphics/SVG/1.1/DTD/svg11.dtd"><svg width="166" height="160" viewBox="0 0 166 160" xmlns="http://www.w3.org/2000/svg" xmlns:xlink="http://www.w3.org/1999/xlink"><svg width="17.3" height="13.7" viewBox="-1 2.3 17.3 13.7" id="arrow-left-burgundy" x="146" y="120.20000000000002" xmlns="http://www.w3.org/2000/svg"><path fill="#903" d="M15.3 9.7H2.1l4.6 4.6-.7.7L.8 9.9l-.1.1-.4-.3-.3-.4.1-.1L0 9l.7-.7.1.1L6 3.3l.7.7-4.6 4.7h13.3v1z"/></svg><svg width="17.3" height="13.7" viewBox="-1 2.3 17.3 13.7" id="arrow-left-gray" x="146" y="79.10000000000001" xmlns="http://www.w3.org/2000/svg"><path fill="#666" d="M.1 9.2L0 9l.4-.4.4-.4.1.1 5.1-5 .7.7-4.6 4.7h13.3v1H2.1l4.6 4.6-.7.7L.9 9.9l-.2.1-.3-.3-.4-.4.1-.1z"/></svg><svg width="17.3" height="13.7" viewBox="-1 2.3 17.3 13.7" id="arrow-left-white" x="128" y="58" xmlns="http://www.w3.org/2000/svg"><path fill="#FFF" d="M.1 9.2L0 9l.4-.4.4-.4.1.1 5.1-5 .7.7-4.6 4.7h13.3v1H2.1l4.6 4.6-.7.7L.9 9.9l-.2.1-.3-.3-.4-.4.1-.1z"/></svg><svg width="17.3" height="13.7" viewBox="-1 2.3 17.3 13.7" id="arrow-right-black" x="146" y="38" xmlns="http://www.w3.org/2000/svg"><path d="M15.1 9.2l.1.1-.2.4-.4.3-.1-.1L9.4 15l-.7-.7 4.6-4.6H0v-1h13.3L8.6 4l.7-.7 5.1 5.1.1-.1.5.4.4.3-.3.2z"/></svg><svg width="17.3" height="13.7" viewBox="-1 2.3 17.3 13.7" id="arrow-right-burgundy" x="146" y="51.7" xmlns="http://www.w3.org/2000/svg"><path fill="#903" d="M15.4 9.3l-.4.4-.4.3-.1-.1L9.4 15l-.7-.7 4.6-4.6H0v-1h13.3L8.6 4l.7-.7 5.1 5.1.1-.1.9.7-.1.1.1.2z"/></svg><svg width="17.3" height="13.7" viewBox="-1 2.3 17.3 13.7" id="arrow-right-gray" x="146" y="65.4" xmlns="http://www.w3.org/2000/svg"><path fill="#666" d="M15.1 9.2l.1.1-.2.4-.4.3-.1-.1L9.4 15l-.7-.7 4.6-4.6H0v-1h13.3L8.6 4l.7-.7 5.1 5.1.1-.1.5.4.4.3-.3.2z"/></svg><svg width="17.3" height="13.7" viewBox="-1 2.3 17.3 13.7" id="arrow-right-maroon" x="146" y="92.80000000000001" xmlns="http://www.w3.org/2000/svg"><path fill="#603" d="M15.4 9.3l-.4.4-.4.3-.1-.1L9.4 15l-.7-.7 4.6-4.6H0v-1h13.3L8.6 4l.7-.7 5.1 5.1.1-.1.9.7-.1.1.1.2z"/></svg><svg width="17.3" height="13.7" viewBox="-1 2.3 17.3 13.7" id="arrow-right-white" x="146" y="106.50000000000001" xmlns="http://www.w3.org/2000/svg"><path fill="#FFF" d="M15.1 9.2l.1.1-.2.4-.4.3-.1-.1L9.4 15l-.7-.7 4.6-4.6H0v-1h13.3L8.6 4l.7-.7 5.1 5.1.1-.1.5.4.4.3-.3.2z"/></svg><svg width="20" height="19" viewBox="0 -1 20 19" id="briefcase-maroon" x="146" xmlns="http://www.w3.org/2000/svg"><path fill="#603" d="M17.9 17H2.1c-.6 0-1.1-.5-1.1-1.1v-12c0-.6.5-1.1 1.1-1.1h4.5V1.7C6.6.8 7.4 0 8.3 0h3.4c.9 0 1.7.8 1.7 1.7v1.1h4.5c.6 0 1.1.5 1.1 1.1v11.9c0 .7-.5 1.2-1.1 1.2zM12.3 1.7c0-.3-.3-.6-.6-.6H8.3c-.3 0-.6.3-.6.6v1.1h4.5V1.7zm5.6 2.2H2.1v4h6.2v-.6c0-.6.5-1.1 1.1-1.1h1.1c.6 0 1.1.5 1.1 1.1v.6h6.2v-4zM9.4 7.3v2.9h1.1V7.3H9.4zm8.5 1.8h-6.2v1.1c0 .6-.5 1.1-1.1 1.1H9.4c-.6 0-1.1-.5-1.1-1.1V9.1H2.1v6.8h15.7V9.1z"/></svg><svg width="20" height="19" viewBox="0 -1 20 19" id="briefcase-white" x="146" y="19" xmlns="http://www.w3.org/2000/svg"><path fill="#FFF" d="M17.9 17H2.1c-.6 0-1.1-.5-1.1-1.1v-12c0-.6.5-1.1 1.1-1.1h4.5V1.7C6.6.8 7.4 0 8.3 0h3.4c.9 0 1.7.8 1.7 1.7v1.1h4.5c.6 0 1.1.5 1.1 1.1v11.9c0 .7-.5 1.2-1.1 1.2zM12.3 1.7c0-.3-.3-.6-.6-.6H8.3c-.3 0-.6.3-.6.6v1.1h4.5V1.7zm5.6 2.2H2.1v4h6.2v-.6c0-.6.5-1.1 1.1-1.1h1.1c.6 0 1.1.5 1.1 1.1v.6h6.2v-4zM9.4 7.3v2.9h1.1V7.3H9.4zm8.5 1.8h-6.2v1.1c0 .6-.5 1.1-1.1 1.1H9.4c-.6 0-1.1-.5-1.1-1.1V9.1H2.1v6.8h15.7V9.1z"/></svg><svg width="22" height="13" viewBox="1 2 22 13" id="caret-down-large-burgundy" x="112" y="84" xmlns="http://www.w3.org/2000/svg"><path fill="#903" d="M22 3.8L12 14 2 3.8l.8-.8 9.2 9.3L21.2 3l.8.8z"/></svg><svg width="22" height="13" viewBox="1 2 22 13" id="caret-down-large-maroondark" x="90" y="84" xmlns="http://www.w3.org/2000/svg"><path fill="#903" d="M22 3.8l-9.2 9.3-.8.9L2 3.8l.8-.8 9.2 9.3L21.2 3l.8.8z"/></svg><svg width="22" height="13" viewBox="1 2 22 13" id="caret-down-large-white" x="68" y="84" xmlns="http://www.w3.org/2000/svg"><path fill="#FFF" d="M22 3.8L12 14 2 3.8l.8-.8 9.2 9.3L21.2 3l.8.8z"/></svg><svg id="caret-down-small-gray" width="12" height="8" viewBox="-3 5 12 8" x="102" y="75" xmlns="http://www.w3.org/2000/svg"><style>.anst0{fill:#666}</style><path class="anst0" d="M8 6.8l-4.2 4.3-.8.9-.8-.8L-2 6.8l.8-.8L3 10.3 7.2 6l.8.8z"/></svg><svg width="12" height="8" viewBox="-3 5 12 8" id="caret-down-small-maroon" x="146" y="133.9" xmlns="http://www.w3.org/2000/svg"><path class="aost0" fill="#603" d="M8 6.8l-4.2 4.3-.8.9-.8-.8L-2 6.8l.8-.8L3 10.3 7.2 6l.8.8z"/></svg><svg width="22" height="13" viewBox="1 2 22 13" id="caret-up-large-burgundy" x="24" y="84" xmlns="http://www.w3.org/2000/svg"><path fill="#903" d="M22 13.2l-.8.8L12 4.7 2.8 14l-.8-.8L12 3l.8.8 9.2 9.4z"/></svg><svg width="22" height="13" viewBox="1 2 22 13" id="caret-up-large-maroondark" x="44" y="104" xmlns="http://www.w3.org/2000/svg"><path fill="#903" d="M22 13.2l-.8.8L12 4.7 2.8 14l-.8-.8L12 3l.8.8 9.2 9.4z"/></svg><svg width="22" height="13" viewBox="1 2 22 13" id="caret-up-large-white" x="46" y="84" xmlns="http://www.w3.org/2000/svg"><path fill="#FFF" d="M22 13.2l-.8.8L12 4.7 2.8 14l-.8-.8L12 3l.8.8 9.2 9.4z"/></svg><svg preserveAspectRatio="xMidYMid" width="17" height="13" viewBox="-1 -1 17 13" id="check-maroon" x="66" y="104" xmlns="http://www.w3.org/2000/svg"><defs><style>.ascls-1{fill:#603;fill-rule:evenodd}</style></defs><path d="M5.873 7.92L1.721 4.296.004 5.838l5.869 5.165 9.119-9.474-1.717-1.541L5.873 7.92z" class="ascls-1"/></svg><svg width="16" height="16" viewBox="-1 1 16 16" id="close-burgundy" x="86" y="52" xmlns="http://www.w3.org/2000/svg"><path fill="#903" d="M14 3.4L12.6 2 7 7.6 1.4 2 0 3.4 5.6 9 0 14.6 1.4 16 7 10.4l5.6 5.6 1.4-1.4L8.4 9 14 3.4z"/></svg><svg width="16" height="16" viewBox="-1 1 16 16" id="close-gray" x="32" y="144" xmlns="http://www.w3.org/2000/svg"><path fill="#666" d="M14 3.4L12.6 2 7 7.6 1.4 2 0 3.4 5.6 9 0 14.6 1.4 16 7 10.4l5.6 5.6 1.4-1.4L8.4 9 14 3.4z"/></svg><svg width="12" height="22" viewBox="-3 -3 12 22" id="facebook-color" y="122" xmlns="http://www.w3.org/2000/svg"><path fill="#3B5998" d="M8-2v3.2s-2.6-.2-3.2.7c-.3.5-.1 2-.2 3H8c-.3 1.2-.5 2-.7 3.1H4.6v10H0V8h-2V4.9h2C.1 2.6.1.3 1.4-.8 2.7-2.2 4-2 8-2z"/></svg><svg width="12" height="22" viewBox="-3 -3 12 22" id="facebook-white" x="12" y="122" xmlns="http://www.w3.org/2000/svg"><path fill="#FFF" d="M8-2v3.2s-2.6-.2-3.2.7c-.3.5-.1 2-.2 3H8c-.3 1.2-.5 2-.7 3.1H4.6v10H0V8h-2V4.9h2C.1 2.6.1.3 1.4-.8 2.7-2.2 4-2 8-2z"/></svg><svg width="44" height="29" viewBox="-1 -1 44 29" id="lan-be" x="102" y="29" xmlns="http://www.w3.org/2000/svg"><path d="M0 0h14v27H0z"/><path fill="#F8DC5E" d="M14 0h14v27H14z"/><path fill="#E73044" d="M28 0h14v27H28z"/></svg><svg width="44" height="29" viewBox="-1 -1 44 29" id="lan-nl" x="102" xmlns="http://www.w3.org/2000/svg"><path fill="#AA2230" d="M0 0h42v9H0z"/><path fill="#FFF" d="M0 9h42v9H0z"/><path fill="#254987" d="M0 18h42v9H0z"/></svg><svg width="20" height="19" viewBox="0 -1 20 19" id="linkedin-color" x="116" y="122" xmlns="http://www.w3.org/2000/svg"><path fill="#0976B4" d="M15 17v-6.2c0-1.3-.4-2.5-1.9-2.5S11 9.6 11 10.9V17H7V5.7h4v1.5c1.1-1.3 2-1.9 3.6-1.9 1.7 0 4.4.8 4.4 5.2V17h-4zM3.3 4C2 4 1 3.1 1 2s1-2 2.2-2 2.2.9 2.2 2-.9 2-2.1 2zm2 13h-4V5.7h4V17z"/></svg><svg width="20" height="19" viewBox="0 -1 20 19" id="linkedin-white" x="96" y="122" xmlns="http://www.w3.org/2000/svg"><path fill="#FFF" d="M15 17v-6.2c0-1.3-.4-2.5-1.9-2.5S11 9.6 11 10.9V17H7V5.7h4v1.5c1.1-1.3 2-1.9 3.6-1.9 1.7 0 4.4.8 4.4 5.2V17h-4zM3.3 4C2 4 1 3.1 1 2s1-2 2.2-2 2.2.9 2.2 2-.9 2-2.1 2zm2 13h-4V5.7h4V17z"/></svg><svg width="16" height="21" viewBox="-1 -2 16 21" id="location-maroon" x="60" y="122" xmlns="http://www.w3.org/2000/svg"><path fill="#603" d="M8.2 17.5s-.4.5-.9.5-.9-.5-.9-.5C3.8 14.6 0 10.4 0 6.2 0 2.3 3.2-1 7.1-1 11.5-1 14 2.3 14 6.2c0 4-3.5 8.6-5.8 11.3zM7.1.2C3.9.2 1.2 3 1.2 6.2c0 3.5 3.3 7.3 5.7 10.1l.3.4s.1 0 .1.1c0 0 .1 0 .1-.1 3.7-4.3 5.5-7.8 5.5-10.5-.1-3-1.9-6-5.8-6zM7 9.7c-1.9 0-3.5-1.6-3.5-3.6S5.1 2.5 7 2.5s3.5 1.6 3.5 3.6S8.9 9.7 7 9.7zm0-5.9c-1.3 0-2.3 1.1-2.3 2.4 0 1.3 1.1 2.4 2.4 2.4s2.3-1.1 2.3-2.4C9.3 4.8 8.3 3.8 7 3.8z"/></svg><svg width="16" height="21" viewBox="-1 -2 16 21" id="location-white" x="44" y="122" xmlns="http://www.w3.org/2000/svg"><path fill="#FFF" d="M8.2 17.5s-.4.5-.9.5-.9-.5-.9-.5C3.8 14.6 0 10.4 0 6.2 0 2.3 3.2-1 7.1-1 11.5-1 14 2.3 14 6.2c0 4-3.5 8.6-5.8 11.3zM7.1.2C3.9.2 1.2 3 1.2 6.2c0 3.5 3.3 7.3 5.7 10.1l.3.4s.1 0 .1.1c0 0 .1 0 .1-.1 3.7-4.3 5.5-7.8 5.5-10.5-.1-3-1.9-6-5.8-6zM7 9.7c-1.9 0-3.5-1.6-3.5-3.6S5.1 2.5 7 2.5s3.5 1.6 3.5 3.6S8.9 9.7 7 9.7zm0-5.9c-1.3 0-2.3 1.1-2.3 2.4 0 1.3 1.1 2.4 2.4 2.4s2.3-1.1 2.3-2.4C9.3 4.8 8.3 3.8 7 3.8z"/></svg><svg width="102" height="52" viewBox="-460 480 102 52" id="logo" xmlns="http://www.w3.org/2000/svg"><path fill="#FFF" d="M-404.1 484.6l23.9 27.8h-71.2l40.4-30.2c.9-.6 1.8-1.1 2.8-1.1s1.8.5 2.4 1.4l.6.6 44 23.8s2.4 1.2 2.4 3.8v6.9l-45.3-33zm-34 32.5c0 .9-.8 1.5-1.6 1.5h-14.9c-.8 0-1.2.5-1.2 1.2v6.9c0 .8.5 1.2 1.2 1.2h14.9c.9 0 1.6.8 1.6 1.5 0 .9-.8 1.5-1.6 1.5h-14.9c-2.4 0-4.4-2-4.4-4.4v-6.8c0-2.4 2-4.4 4.4-4.4h14.9c.8.2 1.6.9 1.6 1.8zm4.7-1.6h13.4c2.4 0 4.4 2 4.4 4.4v.2c0 2.4-2 4.4-4.4 4.4h-11.5c-.9 0-1.5-.8-1.5-1.5s.8-1.6 1.5-1.6h11.5c.8 0 1.2-.5 1.2-1.2v-.2c0-.8-.5-1.2-1.2-1.2h-13.4c-.8 0-1.2.5-1.2 1.2v6.9c0 .8.5 1.2 1.2 1.2h16.1c.9 0 1.5.8 1.5 1.5 0 .9-.8 1.5-1.5 1.5h-16.1c-2.4 0-4.4-2-4.4-4.4v-6.8c0-2.4 2-4.4 4.4-4.4zm19.8 0c.5 0 1 .2 1.2.6l9.8 11.6c.1.2.4.4.8.4s.5-.1.8-.4l9.8-11.6c.2-.4.8-.6 1.2-.6.9 0 1.6.8 1.6 1.6 0 .4-.1.8-.4 1l-9.8 11.6c-.8.9-1.8 1.4-3 1.4h-.4c-1.1 0-2.2-.5-3-1.4l-9.8-11.6c-.2-.2-.4-.6-.4-1 0-.9.7-1.6 1.6-1.6zm30.2 1.4c.8-.9 1.8-1.4 3-1.4h.4c1.1 0 2.2.5 3 1.4l9.8 11.6c.2.2.4.6.4 1 0 .9-.8 1.6-1.6 1.6-.5 0-1-.2-1.2-.6l-9.8-11.6c-.1-.2-.4-.4-.8-.4-.2 0-.5.1-.8.4l-9.8 11.6c-.2.4-.8.6-1.2.6-.9 0-1.6-.8-1.6-1.6 0-.4.1-.8.4-1l9.8-11.6zm1 6.1h4.4c.9 0 1.5.8 1.5 1.5 0 .9-.8 1.5-1.5 1.5h-4.4c-.9 0-1.5-.8-1.5-1.5s.7-1.5 1.5-1.5z"/></svg><svg width="62" height="32" viewBox="21 -8 62 32" id="logo-small" y="52" xmlns="http://www.w3.org/2000/svg"><path fill="#FFF" d="M55-4.8L69 11H27L50.7-6.4c.5-.4 1-.6 1.6-.6.6 0 1 .3 1.4.8l.4.4L80.6 8.5s1.4.8 1.4 2.3v4L55-4.8zM34.5 14.6c0 .5-.4.9-.9.9h-8.9c-.4 0-.7.3-.7.7v4.1c0 .4.3.8.7.8h8.9c.5 0 .9.4.9.9s-.4 1-.9 1h-8.9c-1.4 0-2.6-1.2-2.6-2.6v-4.1c0-1.4 1.2-2.6 2.6-2.6h8.9c.5-.1.9.3.9.9zm2.9-1h8c1.4 0 2.6 1.2 2.6 2.6v.1c0 1.4-1.2 2.6-2.6 2.6h-6.9c-.5 0-.9-.4-.9-.9s.4-.9.9-.9h6.9c.4 0 .8-.3.8-.7v-.1c0-.4-.3-.7-.8-.7h-8c-.4 0-.7.3-.7.7v4.1c0 .4.3.8.7.8h9.7c.5 0 .9.4.9.9s-.4.9-.9.9h-9.7c-1.4 0-2.6-1.2-2.6-2.6v-4.1c0-1.5 1.1-2.7 2.6-2.7zm11.8 0c.3 0 .6.1.7.3l5.9 7c.1.1.3.2.4.2s.3-.1.4-.2l5.9-7c.2-.2.4-.3.7-.3.5 0 1 .4 1 1 0 .2-.1.5-.2.6l-5.9 7c-.4.5-1.1.8-1.8.8h-.2c-.7 0-1.3-.3-1.8-.8l-5.9-7c-.1-.2-.2-.4-.2-.6.1-.5.5-1 1-1zm18.2.8c.4-.5 1.1-.8 1.8-.8h.2c.7 0 1.3.3 1.8.8l5.9 7c.1.2.2.4.2.6 0 .5-.4 1-1 1-.3 0-.6-.1-.7-.3l-5.9-7c-.1-.1-.2-.2-.4-.2s-.3.1-.4.2l-5.9 7c-.2.2-.4.3-.7.3-.5 0-1-.4-1-1 0-.2.1-.5.2-.6l5.9-7zm.6 3.7h2.6c.5 0 .9.4.9.9s-.4.9-.9.9H68c-.5 0-.9-.4-.9-.9s.4-.9.9-.9z"/></svg><svg width="26" height="17" viewBox="3 0 26 17" id="menu" x="102" y="58" xmlns="http://www.w3.org/2000/svg"><path fill="#603" d="M4 16v-3h24v3H4zm0-9h24v3H4V7zm0-6h24v3H4V1z"/></svg><svg width="20" height="21" viewBox="-491 490 20 21" id="play-burgundy" x="24" y="122" xmlns="http://www.w3.org/2000/svg"><path fill="#903" d="M-490 510l18-9.5-18-9.5v19z"/></svg><svg width="20" height="21" viewBox="-491 490 20 21" id="play-white" x="76" y="122" xmlns="http://www.w3.org/2000/svg"><path fill="#FFF" d="M-490 510l18-9.5-18-9.5v19z"/></svg><svg width="16" height="16" viewBox="-1 1 16 16" id="search-burgundy" y="144" xmlns="http://www.w3.org/2000/svg"><path fill="#903" d="M13.9 14.6l-4-4c.6-.9 1-1.9 1-3.1 0-3-2.4-5.4-5.4-5.4S0 4.4 0 7.4s2.4 5.4 5.4 5.4c1.2 0 2.2-.4 3.1-1l4 4c.1.1.2.1.3 0l1.1-1.1c.1.1.1-.1 0-.1zM5.5 11C3.6 11 2 9.4 2 7.5S3.6 4 5.5 4 9 5.6 9 7.5 7.4 11 5.5 11z"/></svg><svg width="16" height="16" viewBox="-1 1 16 16" id="search-gray" x="16" y="144" xmlns="http://www.w3.org/2000/svg"><path fill="#666" d="M13.9 14.6l-4-4c.6-.9 1-1.9 1-3.1 0-3-2.4-5.4-5.4-5.4S0 4.4 0 7.4s2.4 5.4 5.4 5.4c1.2 0 2.2-.4 3.1-1l4 4c.1.1.2.1.3 0l1.1-1.1c.1.1.1-.1 0-.1zM5.5 11C3.6 11 2 9.4 2 7.5S3.6 4 5.5 4 9 5.6 9 7.5 7.4 11 5.5 11z"/></svg><svg width="22" height="18" viewBox="1 -1 22 18" id="twitter-color" x="22" y="104" xmlns="http://www.w3.org/2000/svg"><path fill="#55ACEE" d="M15.6 0c1.6 0 2.4.5 3.2 1.3.7-.1 1.6-.4 2.1-.7.2-.1.3-.2.5-.3-.3.8-.7 1.4-1.3 1.9-.1.1-.3.2-.5.3.9 0 1.6-.4 2.3-.6-.4.6-.9 1.2-1.4 1.6-.1.2-.3.3-.5.5 0 .9 0 1.8-.2 2.6-1 4.5-3.7 7.6-8 8.9-1.5.5-4 .7-5.8.2-.9-.2-1.7-.5-2.4-.8l-1.2-.6c-.1-.1-.2-.1-.4-.2.4 0 .9.1 1.3 0s.8 0 1.2-.1c.9-.2 1.8-.5 2.5-.9.3-.2.9-.4 1.1-.7-.5 0-.9-.1-1.2-.2-1.4-.4-2.2-1.2-2.7-2.5.4 0 1.6.1 1.8-.1-.5 0-1-.3-1.3-.5-1-.7-1.9-1.8-1.9-3.5.1.1.3.1.4.2l.9.3c.1 0 .4.1.6 0-.3-.2-.6-.4-.8-.6-.7-.9-1.4-2.2-1-3.7.1-.4.3-.7.5-1.1.1.2.3.3.4.5.3.4.8.8 1.2 1.1 1.5 1.2 2.8 1.9 5 2.4.6.2 1.2.3 1.8.3-.2-.5-.1-1.4 0-1.9.4-1.3 1.2-2.2 2.3-2.7l.9-.3c.3-.1.4-.1.6-.1z"/></svg><svg width="22" height="18" viewBox="1 -1 22 18" id="twitter-white" y="104" xmlns="http://www.w3.org/2000/svg"><path fill="#FFF" d="M15.6 0c1.6 0 2.4.5 3.2 1.3.7-.1 1.6-.4 2.1-.7.2-.1.3-.2.5-.3-.3.8-.7 1.4-1.3 1.9-.1.1-.3.2-.5.3.9 0 1.6-.4 2.3-.6-.4.6-.9 1.2-1.4 1.6-.1.2-.3.3-.5.5 0 .9 0 1.8-.2 2.6-1 4.5-3.7 7.6-8 8.9-1.5.5-4 .7-5.8.2-.9-.2-1.7-.5-2.4-.8l-1.2-.6c-.1-.1-.2-.1-.4-.2.4 0 .9.1 1.3 0s.8 0 1.2-.1c.9-.2 1.8-.5 2.5-.9.3-.2.9-.4 1.1-.7-.5 0-.9-.1-1.2-.2-1.4-.4-2.2-1.2-2.7-2.5.4 0 1.6.1 1.8-.1-.5 0-1-.3-1.3-.5-1-.7-1.9-1.8-1.9-3.5.1.1.3.1.4.2l.9.3c.1 0 .4.1.6 0-.3-.2-.6-.4-.8-.6-.7-.9-1.4-2.2-1-3.7.1-.4.3-.7.5-1.1.1.2.3.3.4.5.3.4.8.8 1.2 1.1 1.5 1.2 2.8 1.9 5 2.4.6.2 1.2.3 1.8.3-.2-.5-.1-1.4 0-1.9.4-1.3 1.2-2.2 2.3-2.7l.9-.3c.3-.1.4-.1.6-.1z"/></svg><svg width="24" height="20" viewBox="2 -2 24 20" id="youtube-color" x="62" y="52" xmlns="http://www.w3.org/2000/svg"><path fill="#CD201F" d="M22 17H6c-1.7 0-3-1.3-3-3V2C3 .3 4.3-1 6-1h16c1.7 0 3 1.3 3 3v12c0 1.7-1.3 3-3 3zm1-14c0-1.1-.9-2-2-2H7c-1.1 0-2 .9-2 2v10c0 1.1.9 2 2 2h14c1.1 0 2-.9 2-2V3zM11 5l8 3-8 3V5z"/></svg><svg width="24" height="20" viewBox="2 -2 24 20" id="youtube-white" y="84" xmlns="http://www.w3.org/2000/svg"><path fill="#FFF" d="M22 17H6c-1.7 0-3-1.3-3-3V2C3 .3 4.3-1 6-1h16c1.7 0 3 1.3 3 3v12c0 1.7-1.3 3-3 3zm1-14c0-1.1-.9-2-2-2H7c-1.1 0-2 .9-2 2v10c0 1.1.9 2 2 2h14c1.1 0 2-.9 2-2V3zM11 5l8 3-8 3V5z"/></svg></svg>